<?xml version="1.0" encoding="iso-8859-1"?>
<!-- Generator: Adobe Illustrator 19.0.0, SVG Export Plug-In . SVG Version: 6.00 Build 0)  -->
<svg version="1.1" id="Layer_1" xmlns="http://www.w3.org/2000/svg" xmlns:xlink="http://www.w3.org/1999/xlink" x="0px" y="0px"
	 viewBox="0 0 492 492" style="enable-background:new 0 0 492 492;" xml:space="preserve">
<path style="fill:#F4CF31;" d="M486,437.6c0,28-24,54.4-52,54.4H58c-28,0-52-26.4-52-54.4V84.8C6,56.8,30,36,58,36h376
	c28,0,52,20.8,52,48.8V437.6z"/>
<path style="fill:#F2B233;" d="M7.6,85.6C7.6,57.6,30,36,58,36h376c28,0,52,20.8,52,48.8v352.8c0,28-24,54.4-52,54.4"/>
<path style="fill:#00233F;" d="M434,36H58C30,36,6,56.8,6,84.8V132h480V84.8C486,56.8,462,36,434,36z"/>
<path style="fill:#104C75;" d="M486,132V84.8c0-28-24-48.8-52-48.8H62"/>
<g>
	<circle style="fill:#024651;" cx="90" cy="210.4" r="12.8"/>
	<circle style="fill:#024651;" cx="168.4" cy="210.4" r="12.8"/>
	<circle style="fill:#024651;" cx="246" cy="210.4" r="12.8"/>
	<circle style="fill:#024651;" cx="323.6" cy="210.4" r="12.8"/>
	<circle style="fill:#024651;" cx="90" cy="277.6" r="12.8"/>
	<circle style="fill:#024651;" cx="168.4" cy="277.6" r="12.8"/>
	<circle style="fill:#024651;" cx="246" cy="277.6" r="12.8"/>
	<circle style="fill:#024651;" cx="323.6" cy="277.6" r="12.8"/>
	<circle style="fill:#024651;" cx="402" cy="277.6" r="12.8"/>
	<circle style="fill:#024651;" cx="90" cy="344.8" r="12.8"/>
	<circle style="fill:#024651;" cx="168.4" cy="344.8" r="12.8"/>
	<circle style="fill:#024651;" cx="246" cy="344.8" r="12.8"/>
	<circle style="fill:#024651;" cx="323.6" cy="344.8" r="12.8"/>
	<circle style="fill:#024651;" cx="402" cy="344.8" r="12.8"/>
	<circle style="fill:#024651;" cx="90" cy="412" r="12.8"/>
	<circle style="fill:#024651;" cx="168.4" cy="412" r="12.8"/>
	<circle style="fill:#024651;" cx="246" cy="412" r="12.8"/>
	<circle style="fill:#024651;" cx="323.6" cy="412" r="12.8"/>
	<circle style="fill:#024651;" cx="402" cy="412" r="12.8"/>
</g>
<path style="fill:#D81665;" d="M414,170.4c0-7.2-12.8-12-22.4-12c-14.4,0-25.6,10.4-25.6,22.4c0,4.8,1.6,9.6,4.8,12.8l0,0l0,0
	l43.2,43.2V170.4z"/>
<path style="fill:#A3024B;" d="M414,170.4c0-8,13.6-12,23.2-12c14.4,0,24.8,11.2,24.8,22.4c0,4.8-1.6,10.4-4.8,12.8l0,0l0,0
	L414,236.8V170.4z"/>
<path style="fill:#F4CF31;" d="M142,46.4c0,9.6-6.4,16.8-16,16.8l0,0c-9.6,0-16-8-16-16.8V16.8C110,7.2,116.4,0,126,0l0,0
	c9.6,0,16,8,16,16.8V46.4z"/>
<path style="fill:#F2B233;" d="M126.8,0L126.8,0c9.6,0,15.2,8,15.2,16.8v29.6c0,9.6-6.4,16.8-16,16.8l0,0"/>
<path style="fill:#F4CF31;" d="M382,46.4c0,9.6-6.4,16.8-16,16.8l0,0c-9.6,0-16-8-16-16.8V16.8C350,7.2,356.4,0,366,0l0,0
	c9.6,0,16,8,16,16.8V46.4z"/>
<path style="fill:#F2B233;" d="M364.4,0L364.4,0C374,0,382,8,382,16.8v29.6c0,9.6-8,16.8-17.6,16.8l0,0"/>
<g>
</g>
<g>
</g>
<g>
</g>
<g>
</g>
<g>
</g>
<g>
</g>
<g>
</g>
<g>
</g>
<g>
</g>
<g>
</g>
<g>
</g>
<g>
</g>
<g>
</g>
<g>
</g>
<g>
</g>
</svg>
