<?xml version="1.0" ?><svg width="64px" height="64px" viewBox="0 0 64 64" xmlns="http://www.w3.org/2000/svg"><g data-name="25_Video Lession" id="_25_Video_Lession"><path d="M38,56H26a1,1,0,0,1-1-1V45a1,1,0,0,1,1-1H38a1,1,0,0,1,1,1V55A1,1,0,0,1,38,56Z" style="fill:#dfeaef"/><path d="M27,56V46a1,1,0,0,1,1-1H26a1,1,0,0,0-1,1V56a1,1,0,0,0,1,1h2A1,1,0,0,1,27,56Z" style="fill:#c3d6dd"/><path d="M51,62H13a1,1,0,0,1-1-1,7.009,7.009,0,0,1,7-7H45a7.009,7.009,0,0,1,7,7A1,1,0,0,1,51,62Z" style="fill:#0455bf"/><path d="M14,61a7.009,7.009,0,0,1,7-7H19a7.009,7.009,0,0,0-7,7,1,1,0,0,0,1,1h2A1,1,0,0,1,14,61Z" style="fill:#004787"/><path d="M59,46H5a3,3,0,0,1-3-3V5A3,3,0,0,1,5,2H59a3,3,0,0,1,3,3V43A3,3,0,0,1,59,46Z" style="fill:#fdfeff"/><path d="M4,43V5A3,3,0,0,1,7,2H5A3,3,0,0,0,2,5V43a3,3,0,0,0,3,3H7A3,3,0,0,1,4,43Z" style="fill:#dfeaef"/><path d="M59,46H5a3,3,0,0,1-3-3V38H62v5A3,3,0,0,1,59,46Z" style="fill:#0455bf"/><path d="M4,44V38H2v6a2,2,0,0,0,2,2H6A2,2,0,0,1,4,44Z" style="fill:#004787"/><rect height="2" style="fill:#febc00" width="2" x="31" y="41"/><path d="M32,28A10,10,0,1,1,42,18,10.011,10.011,0,0,1,32,28Z" style="fill:#0455bf"/><path d="M34,26a9.981,9.981,0,0,1-7.989-15.989A9.987,9.987,0,1,0,39.989,23.989,9.933,9.933,0,0,1,34,26Z" style="fill:#004787"/><path d="M36.607,17.162l-6.061-3.946A1,1,0,0,0,29,14.054V22a1,1,0,0,0,.525.881,1,1,0,0,0,1.026-.046l6.061-3.995a1,1,0,0,0-.005-1.673Z" style="fill:#febc00"/><path d="M36.607,17.162l0,0L32.551,19.83A1,1,0,0,1,31,19V13.511l-.454-.295A1,1,0,0,0,29,14.054V22a1,1,0,0,0,.525.881,1,1,0,0,0,1.026-.046l6.061-3.995a1,1,0,0,0-.005-1.673Z" style="fill:#edaa03"/><polygon points="20 30 18 30 11 30 11 32 18 32 20 32 50 32 50 30 20 30" style="fill:#0455bf"/><polygon points="18 31 11 31 11 32 18 32 20 32 50 32 50 31 20 31 18 31" style="fill:#004787"/><path d="M17,33a2,2,0,1,1,2-2A2,2,0,0,1,17,33Z" style="fill:#febc00"/><path d="M17,30a1.973,1.973,0,0,1,.264-.973A1.92,1.92,0,0,0,17,29a2,2,0,1,0,1.736,2.973A2,2,0,0,1,17,30Z" style="fill:#edaa03"/></g></svg>